<svg xmlns="http://www.w3.org/2000/svg" width="24" height="24" viewBox="0 0 24 24">
  <g id="show-m-default">
    <path id="default" fill-rule="evenodd" d="M12.005 6c7.374 0 9.925 5.8 9.925 5.8h-.01l.08.2-.08.2c-.02.06-2.761 5.8-9.925 5.8-7.112 0-9.708-5.352-9.91-5.772l-.005-.008v-.02L2 12l.08-.2C2.1 11.74 4.631 6 12.005 6Zm-8.624 6c.66 1.16 3.121 4.75 8.624 4.75 5.573 0 8.034-3.69 8.624-4.75-.57-1.05-3.061-4.75-8.624-4.75-5.563 0-8.024 3.68-8.624 4.75Zm6.153-2.47c.68-.69 1.57-1.03 2.47-1.03.891 0 1.792.35 2.472 1.03a3.493 3.493 0 0 1 0 4.95 3.46 3.46 0 0 1-2.471 1.03c-.89 0-1.791-.35-2.471-1.03a3.493 3.493 0 0 1 0-4.95Zm2.47 4.72c.601 0 1.171-.24 1.592-.66.88-.88.88-2.3 0-3.18-.42-.43-.99-.66-1.591-.66a2.25 2.25 0 0 0-1.59 3.84c.42.43.99.66 1.59.66Z" clip-rule="evenodd"/>
  </g>
</svg>
